<svg width="171" height="49" viewBox="0 0 171 49" fill="none" xmlns="http://www.w3.org/2000/svg">
<path d="M46.6944 19.0411H33.6992V46.1329C34.36 46.265 38.2329 45.4905 40.0867 45.0867C45.5051 43.0162 46.7495 36.9922 46.6944 34.2389V29.6135V19.0411Z" fill="white"/>
<path d="M13.1054 2.85217H25.8803V11.3872H13.9313C10.0548 11.2991 9.01223 14.9113 8.97552 16.7284V19.9222V32.9174C9.15173 34.8116 10.1869 36.3498 10.6825 36.8821C11.6076 37.4547 12.9402 37.7447 13.4908 37.8181H16.5194H28.7988C29.3274 37.8181 30.4507 37.4878 30.9463 37.3226C31.4308 37.3226 32.1393 36.5517 32.433 36.1662V46.0228H11.7287C10.0107 45.9787 7.37865 45.1968 6.27736 44.8113C3.89857 44.1065 2.16587 41.5075 1.59687 40.2961C0.759891 39.3269 0.183548 35.2668 0 33.3579V16.7284L0.330387 13.4796C0.374439 9.55903 2.73487 6.70669 3.90958 5.77059C5.49544 3.92042 10.7009 3.05408 13.1054 2.85217Z" fill="white"/>
<rect x="33.6992" y="2.85217" width="12.9952" height="11.4534" rx="3.08361" fill="white"/>
<path d="M68.4775 11.551C65.6026 11.551 63.3902 12.5634 61.8402 14.5884C60.3153 16.5883 59.5528 19.1882 59.5528 22.388C59.5528 25.5629 60.4528 28.2503 62.2527 30.4502C64.0526 32.6501 66.3901 33.7501 69.2649 33.7501C73.0898 33.7501 75.7772 31.8377 77.3271 28.0128L79.877 28.5753C79.877 28.8003 79.552 29.8252 78.9021 31.6502C78.2521 33.4501 77.8521 34.3376 77.7021 34.3126C75.1022 35.7375 72.0398 36.45 68.515 36.45C64.1651 36.45 60.6028 35.2375 57.8279 32.8126C55.078 30.3877 53.7031 27.1879 53.7031 23.213C53.7031 18.7132 55.128 15.2133 57.9779 12.7134C60.8528 10.1885 64.5276 8.92609 69.0025 8.92609C70.9774 8.92609 73.1148 9.20107 75.4147 9.75105C76.5896 9.97604 77.6521 10.1635 78.6021 10.3135C78.8771 10.8885 79.0145 11.876 79.0145 13.2759C79.0145 14.6759 78.9396 16.1008 78.7896 17.5507L76.0897 17.2508C75.9147 15.7758 75.5647 14.6509 75.0397 13.8759C73.9648 12.326 71.7773 11.551 68.4775 11.551ZM93.3232 36.075L87.4359 36C86.0859 36 84.461 36.0375 82.5611 36.1125L82.1111 34.0876C83.3111 34.0626 84.0985 33.9376 84.4735 33.7126C84.8735 33.4876 85.0735 33.1626 85.0735 32.7376L85.2235 12.6384C85.2235 12.1885 85.0485 11.851 84.6985 11.626C84.3735 11.401 83.711 11.2885 82.7111 11.2885L82.2236 9.26357C85.2235 9.33857 87.2734 9.37607 88.3734 9.37607C89.4983 9.37607 91.0107 9.33857 92.9107 9.26357L93.3607 11.2885C92.1607 11.3135 91.3607 11.4385 90.9607 11.6635C90.5858 11.8885 90.3983 12.2135 90.3983 12.6384V31.7252C90.3983 33.0501 91.0107 33.7126 92.2357 33.7126H95.7606C99.1354 33.7126 101.435 31.9127 102.66 28.3128L104.685 28.7253C104.685 29.1503 104.323 30.4752 103.598 32.7001C102.873 34.9 102.335 36 101.985 36L93.3232 36.075ZM113.454 19.7632V33.1501C113.454 33.5501 113.591 33.8501 113.866 34.0501C114.166 34.2251 114.766 34.3126 115.666 34.3126L116.079 36.1125C113.454 36.0375 111.629 36 110.604 36C109.604 36 108.266 36.0375 106.591 36.1125L106.216 34.3126C107.241 34.2876 107.929 34.1876 108.279 34.0126C108.629 33.8126 108.804 33.5251 108.804 33.1501V24.1505C108.804 23.5755 108.654 23.138 108.354 22.838C108.054 22.513 107.454 22.3505 106.554 22.3505H106.066L105.542 20.8131C107.791 20.2881 110.016 19.6507 112.216 18.9007C112.741 18.9007 113.079 18.9632 113.229 19.0882C113.379 19.1882 113.454 19.4132 113.454 19.7632ZM111.054 15.3383C110.379 15.3383 109.791 15.1133 109.291 14.6634C108.791 14.2134 108.541 13.6384 108.541 12.9384C108.541 12.2385 108.804 11.626 109.329 11.101C109.879 10.576 110.491 10.3135 111.166 10.3135C111.841 10.3135 112.429 10.5385 112.929 10.9885C113.429 11.4385 113.679 12.0135 113.679 12.7134C113.679 13.4134 113.404 14.0259 112.854 14.5509C112.329 15.0758 111.729 15.3383 111.054 15.3383ZM133.041 27.1504H122.841C122.841 28.6003 123.116 29.9627 123.666 31.2377C123.991 31.9877 124.516 32.6001 125.241 33.0751C125.991 33.5501 126.841 33.7876 127.791 33.7876C128.741 33.7876 129.616 33.6001 130.416 33.2251C131.241 32.8251 131.791 32.4876 132.066 32.2127C132.366 31.9127 132.578 31.8377 132.703 31.9877L133.303 32.8126C132.453 33.8626 131.391 34.7376 130.116 35.4375C128.866 36.1125 127.641 36.45 126.441 36.45C123.741 36.45 121.653 35.6875 120.179 34.1626C118.704 32.6126 117.966 30.5377 117.966 27.9378C117.966 25.3129 118.791 23.2005 120.441 21.6006C122.091 20.0006 123.978 19.2007 126.103 19.2007C128.228 19.2007 129.966 19.8131 131.316 21.0381C132.691 22.2631 133.378 24.113 133.378 26.5879C133.378 26.9629 133.265 27.1504 133.041 27.1504ZM129.066 24.9004C129.066 22.6255 128.128 21.4881 126.253 21.4881C125.328 21.4881 124.578 21.8381 124.003 22.538C123.428 23.238 123.091 24.0255 122.991 24.9004H129.066ZM142.287 19.8756C142.312 20.0506 142.325 20.2006 142.325 20.3256C142.325 20.4506 142.337 20.6381 142.362 20.8881C142.387 21.1381 142.4 21.3256 142.4 21.4506C144.3 20.4506 145.687 19.8256 146.562 19.5757C147.437 19.3257 148.187 19.2007 148.812 19.2007C150.262 19.2007 151.437 19.7257 152.337 20.7756C153.237 21.8256 153.687 23.3505 153.687 25.3504V33.1501C153.687 33.3751 153.699 33.5626 153.724 33.7126C153.774 33.8376 153.924 33.9751 154.174 34.1251C154.424 34.2501 154.787 34.3126 155.262 34.3126L155.674 36.1125C153.049 36.0375 151.399 36 150.724 36C150.049 36 148.874 36.0375 147.199 36.1125L146.824 34.3126C147.674 34.2876 148.249 34.1876 148.549 34.0126C148.849 33.8126 149.012 33.5251 149.037 33.1501V26.4754C149.037 25.1504 148.812 24.1755 148.362 23.5505C147.937 22.9005 147.199 22.5755 146.149 22.5755C145.124 22.5755 143.937 22.863 142.587 23.438V33.1501C142.587 33.3751 142.6 33.5626 142.625 33.7126C142.675 33.8376 142.825 33.9751 143.075 34.1251C143.325 34.2501 143.687 34.3126 144.162 34.3126L144.575 36.1125C141.95 36.0375 140.3 36 139.625 36C138.95 36 137.775 36.0375 136.1 36.1125L135.725 34.3126C136.575 34.2876 137.15 34.1876 137.45 34.0126C137.75 33.8126 137.912 33.5251 137.937 33.1501V24.1505C137.937 23.5505 137.8 23.138 137.525 22.913C137.25 22.663 136.9 22.538 136.475 22.538C136.075 22.538 135.775 22.5505 135.575 22.5755L135.05 21.0381C136.6 20.6631 138.7 19.9506 141.35 18.9007C141.675 18.9007 141.875 18.9757 141.95 19.1257C142.05 19.2507 142.125 19.3632 142.175 19.4632C142.225 19.5632 142.262 19.7007 142.287 19.8756ZM163.737 30.5627C163.737 31.5627 163.925 32.3501 164.3 32.9251C164.7 33.5001 165.212 33.7876 165.837 33.7876C166.462 33.7876 167.2 33.4626 168.05 32.8126C168.25 32.6626 168.4 32.6501 168.5 32.7751L169.25 33.7876C168.6 34.4126 168.087 34.875 167.712 35.175C166.637 36 165.362 36.4125 163.887 36.4125C162.412 36.4125 161.225 35.925 160.325 34.95C159.45 33.9501 159.013 32.8376 159.013 31.6127V22.2381H157.138L156.95 20.8506C158.325 20.4006 159.363 19.8007 160.063 19.0507C160.788 18.2757 161.463 17.2633 162.087 16.0133H162.987C163.237 16.0133 163.4 16.0633 163.475 16.1633C163.55 16.2633 163.587 16.4383 163.587 16.6883L163.737 19.8756H168.5C168.55 20.1006 168.575 20.4131 168.575 20.8131C168.575 21.2131 168.412 21.6881 168.087 22.2381H163.775L163.737 30.5627Z" fill="white"/>
</svg>
