<svg width="97" height="97" viewBox="0 0 97 97" fill="none" xmlns="http://www.w3.org/2000/svg">
<circle cx="48.2363" cy="48.2363" r="48.2363" fill="#01589A"/>
<path d="M37.734 33.2294H41.3113V54.3472C41.3113 56.2321 40.9651 57.8332 40.2727 59.1507C39.5804 60.4681 38.6043 61.4682 37.3445 62.151C36.0848 62.8338 34.599 63.1752 32.8873 63.1752C31.2717 63.1752 29.834 62.8819 28.5743 62.2953C27.3145 61.699 26.324 60.8528 25.6028 59.7565C24.8815 58.6602 24.5209 57.3572 24.5209 55.8474H28.0406C28.0406 56.684 28.2473 57.4149 28.6608 58.04C29.084 58.6554 29.6609 59.1362 30.3918 59.4824C31.1226 59.8286 31.9545 60.0017 32.8873 60.0017C33.9162 60.0017 34.7913 59.7853 35.5126 59.3526C36.2338 58.9199 36.782 58.2852 37.157 57.4485C37.5417 56.6023 37.734 55.5685 37.734 54.3472V33.2294ZM57.5969 62.7713H48.4804V33.2294H58.0007C60.8665 33.2294 63.3187 33.8208 65.3574 35.0036C67.3961 36.1769 68.9587 37.8646 70.0454 40.0667C71.1321 42.2593 71.6754 44.8846 71.6754 47.9426C71.6754 51.0199 71.1273 53.6693 70.031 55.8907C68.9347 58.1025 67.3384 59.8046 65.242 60.997C63.1456 62.1799 60.5972 62.7713 57.5969 62.7713ZM52.0578 59.5978H57.3661C59.8086 59.5978 61.8329 59.1266 63.4389 58.1842C65.0448 57.2418 66.2421 55.9003 67.0306 54.1597C67.8192 52.4191 68.2135 50.3468 68.2135 47.9426C68.2135 45.5577 67.824 43.5046 67.0451 41.7833C66.2661 40.0523 65.1025 38.7252 63.5543 37.802C62.006 36.8692 60.0779 36.4028 57.77 36.4028H52.0578V59.5978Z" fill="white"/>
</svg>
