<svg width="38" height="38" viewBox="0 0 38 38" fill="none" xmlns="http://www.w3.org/2000/svg">
<circle cx="19" cy="19" r="19" fill="#01589A"/>
<path d="M14.8636 13.3636H16.2727V21.6818C16.2727 22.4242 16.1364 23.0549 15.8636 23.5739C15.5909 24.0928 15.2064 24.4867 14.7102 24.7557C14.214 25.0246 13.6288 25.1591 12.9545 25.1591C12.3182 25.1591 11.7519 25.0436 11.2557 24.8125C10.7595 24.5777 10.3693 24.2443 10.0852 23.8125C9.80114 23.3807 9.65909 22.8674 9.65909 22.2727H11.0455C11.0455 22.6023 11.1269 22.8902 11.2898 23.1364C11.4564 23.3788 11.6837 23.5682 11.9716 23.7045C12.2595 23.8409 12.5871 23.9091 12.9545 23.9091C13.3598 23.9091 13.7045 23.8239 13.9886 23.6534C14.2727 23.483 14.4886 23.233 14.6364 22.9034C14.7879 22.5701 14.8636 22.1629 14.8636 21.6818V13.3636ZM22.6875 25H19.0966V13.3636H22.8466C23.9754 13.3636 24.9413 13.5966 25.7443 14.0625C26.5473 14.5246 27.1629 15.1894 27.5909 16.0568C28.0189 16.9205 28.233 17.9545 28.233 19.1591C28.233 20.3712 28.017 21.4148 27.5852 22.2898C27.1534 23.161 26.5246 23.8314 25.6989 24.3011C24.8731 24.767 23.8693 25 22.6875 25ZM20.5057 23.75H22.5966C23.5587 23.75 24.3561 23.5644 24.9886 23.1932C25.6212 22.822 26.0928 22.2936 26.4034 21.608C26.714 20.9223 26.8693 20.1061 26.8693 19.1591C26.8693 18.2197 26.7159 17.411 26.4091 16.733C26.1023 16.0511 25.6439 15.5284 25.0341 15.1648C24.4242 14.7973 23.6648 14.6136 22.7557 14.6136H20.5057V23.75Z" fill="white"/>
</svg>
