<svg width="67" height="67" viewBox="0 0 67 67" fill="none" xmlns="http://www.w3.org/2000/svg">
<path d="M0 20C0 8.95432 8.9543 0 20 0H46.6667C57.7124 0 66.6667 8.9543 66.6667 20V46.6667C66.6667 57.7124 57.7124 66.6667 46.6667 66.6667H20C8.95432 66.6667 0 57.7124 0 46.6667V20Z" fill="#01589A"/>
<path d="M39.2721 19.4753C40.1604 19.856 40.572 20.8847 40.1912 21.7731L29.6919 46.2731C29.3111 47.1614 28.2825 47.573 27.3941 47.1924C26.5057 46.8116 26.0942 45.7828 26.4749 44.8945L36.9743 20.3945C37.3551 19.5061 38.3838 19.0946 39.2721 19.4753ZM25.8841 26.9126C26.5307 27.631 26.4724 28.7376 25.754 29.3839L21.366 33.3333L25.754 37.2825C26.4724 37.9291 26.5307 39.0355 25.8841 39.754C25.2376 40.4724 24.131 40.5305 23.4127 39.8842L17.5793 34.6339C17.2106 34.3021 17 33.8294 17 33.3333C17 32.8373 17.2106 32.3643 17.5793 32.0325L23.4127 26.7825C24.131 26.136 25.2376 26.1942 25.8841 26.9126ZM40.7825 26.9126C40.1359 27.631 40.1943 28.7376 40.9127 29.3839L45.3008 33.3333L40.9127 37.2825C40.1943 37.9291 40.1359 39.0355 40.7825 39.754C41.4291 40.4724 42.5355 40.5305 43.254 39.8842L49.0873 34.6339C49.4562 34.3021 49.6667 33.8294 49.6667 33.3333C49.6667 32.8373 49.4562 32.3643 49.0873 32.0325L43.254 26.7825C42.5355 26.136 41.4291 26.1942 40.7825 26.9126ZM56.6667 33.3333C56.6667 20.4467 46.2199 10 33.3333 10C20.4467 10 10 20.4467 10 33.3333C10 46.2199 20.4467 56.6667 33.3333 56.6667C46.2199 56.6667 56.6667 46.2199 56.6667 33.3333ZM13.5 33.3333C13.5 22.3797 22.3797 13.5 33.3333 13.5C44.2869 13.5 53.1667 22.3797 53.1667 33.3333C53.1667 44.2869 44.2869 53.1667 33.3333 53.1667C22.3797 53.1667 13.5 44.2869 13.5 33.3333Z" fill="white"/>
</svg>
